<?xml version="1.0" encoding="UTF-8"?>
<svg id="Livello_2" data-name="Livello 2" xmlns="http://www.w3.org/2000/svg" viewBox="0 0 88.21 87.95">
  <defs>
    <style>
      .cls-1 {
        stroke-width: 0px;
      }
    </style>
  </defs>
  <g id="Livello_1-2" data-name="Livello 1">
    <g>
      <path class="cls-1" d="m86.42,1.94c-1.05,1.34-2.09,2.68-3.14,4.01-1.59,2.03-3.18,4.05-4.78,6.07-.24.3-.22.48.04.77,1.87,2,3.44,4.23,4.78,6.62,2.03,3.62,3.46,7.46,4.19,11.54.32,1.82.5,3.67.62,5.52.28,4.04-.16,8.02-1.32,11.91-1.57,5.27-4.06,10.05-7.58,14.29-1.57,1.89-3.36,3.55-5.22,5.17-4.39,3.83-9.57,5.96-15.13,7.31-2.43.59-4.9.95-7.4,1.13-.78.05-1.56.09-2.34.18-.18.02-.43.19-.51.35-1.63,3.37-3.25,6.74-4.87,10.12-.17.35-.33.7-.5,1.04-.04,0-.09-.02-.13-.03-.07-.63-.15-1.26-.22-1.89-.33-3.23-.65-6.46-1.01-9.69-.09-.79.02-1.46.46-2.16,4.94-8.07,9.85-16.16,14.77-24.24,3.42-5.62,6.84-11.24,10.26-16.86,2.07-3.41,4.15-6.81,6.22-10.22.06-.1.11-.21.11-.36-.44.56-.88,1.12-1.31,1.68-3.87,5.04-7.73,10.08-11.59,15.11-3.87,5.04-7.74,10.07-11.6,15.1-3.95,5.14-7.9,10.29-11.86,15.43-.73.95-1.47,1.88-2.19,2.84-.24.33-.47.36-.81.17-.64-.34-1.3-.63-1.93-.97-.37-.2-.58-.14-.84.2-2.42,3.27-4.85,6.52-7.28,9.78-.52.7-1.05,1.4-1.58,2.1-.09.12-.19.23-.36.43-.04-.22-.08-.33-.07-.43.05-1.58.11-3.15.16-4.73.1-3.15.19-6.31.29-9.46.05-1.42.1-2.85.18-4.27.02-.26.14-.57.33-.76,9.26-9.27,18.53-18.53,27.8-27.79,5.68-5.67,11.38-11.31,17.06-16.98,5.12-5.1,10.22-10.22,15.34-15.32.94-.94,1.92-1.85,2.87-2.77.02.02.05.04.07.06Z"/>
      <path class="cls-1" d="m75.71,9.93c-.66.52-1.24.99-1.83,1.44-4.92,3.82-9.83,7.63-14.75,11.45-5.49,4.26-10.97,8.52-16.46,12.78-5.22,4.05-10.44,8.1-15.66,12.16-3.43,2.66-6.86,5.32-10.28,7.99-.31.24-.47.25-.65-.13-.31-.65-.65-1.29-1-1.92-.18-.32-.16-.52.16-.77,2.84-2.15,5.66-4.31,8.49-6.47,5.48-4.17,10.95-8.35,16.43-12.52,3.71-2.83,7.41-5.65,11.12-8.48,4.8-3.66,9.61-7.33,14.41-10.99.06-.04.11-.1.11-.23-.68.4-1.35.8-2.03,1.21-5.41,3.27-10.82,6.54-16.22,9.81-6.3,3.81-12.6,7.62-18.9,11.43-5.21,3.15-10.42,6.31-15.63,9.45-.24.14-.59.21-.87.18-1.78-.19-3.56-.42-5.34-.63-2.05-.24-4.11-.48-6.16-.73-.18-.02-.36-.06-.63-.11.16-.1.24-.15.32-.19,2.68-1.25,5.37-2.49,8.06-3.73.96-.44,1.92-.89,2.89-1.32.33-.14.47-.33.46-.69-.08-3.83.48-7.58,1.56-11.25,1.24-4.23,3.09-8.18,5.71-11.73,1.25-1.68,2.57-3.34,4.03-4.83,2.54-2.58,5.47-4.67,8.65-6.41,3.54-1.94,7.29-3.29,11.25-4.05C45.87.07,48.84-.11,51.81.06c5.08.28,9.92,1.53,14.53,3.71,2.96,1.4,5.71,3.11,8.24,5.17.37.3.71.62,1.13.99Z"/>
    </g>
  </g>
</svg>